<?xml version="1.0" encoding="UTF-8"?>
<!DOCTYPE svg PUBLIC "-//W3C//DTD SVG 1.1//EN" "http://www.w3.org/Graphics/SVG/1.1/DTD/svg11.dtd">
<!-- Creator: CorelDRAW 2020 -->
<svg xmlns="http://www.w3.org/2000/svg" xml:space="preserve" width="216.403mm" height="109.056mm" version="1.1" style="shape-rendering:geometricPrecision; text-rendering:geometricPrecision; image-rendering:optimizeQuality; fill-rule:evenodd; clip-rule:evenodd"
viewBox="0 0 21639.8 10905.35"
 xmlns:xlink="http://www.w3.org/1999/xlink"
 xmlns:xodm="http://www.corel.com/coreldraw/odm/2003">
 <defs>
  <style type="text/css">
   <![CDATA[
    .fil0 {fill:none}
    .fil22 {fill:#007289;fill-rule:nonzero}
    .fil4 {fill:#051733;fill-rule:nonzero}
    .fil17 {fill:#0C415B;fill-rule:nonzero}
    .fil18 {fill:#1D627D;fill-rule:nonzero}
    .fil21 {fill:#1DACAC;fill-rule:nonzero}
    .fil12 {fill:#3537A1;fill-rule:nonzero}
    .fil24 {fill:#3D3936;fill-rule:nonzero}
    .fil14 {fill:#472063;fill-rule:nonzero}
    .fil11 {fill:#4749D6;fill-rule:nonzero}
    .fil20 {fill:#611714;fill-rule:nonzero}
    .fil13 {fill:#662D8E;fill-rule:nonzero}
    .fil16 {fill:#718F26;fill-rule:nonzero}
    .fil19 {fill:#86201B;fill-rule:nonzero}
    .fil25 {fill:#9C7672;fill-rule:nonzero}
    .fil15 {fill:#A1CC36;fill-rule:nonzero}
    .fil10 {fill:#A80060;fill-rule:nonzero}
    .fil23 {fill:#BD948F;fill-rule:nonzero}
    .fil1 {fill:#D7EAF1;fill-rule:nonzero}
    .fil9 {fill:#E30081;fill-rule:nonzero}
    .fil8 {fill:#E44424;fill-rule:nonzero}
    .fil3 {fill:#F37A67;fill-rule:nonzero}
    .fil2 {fill:#F69779;fill-rule:nonzero}
    .fil6 {fill:#FF863B;fill-rule:nonzero}
    .fil5 {fill:#FFA33B;fill-rule:nonzero}
    .fil7 {fill:white;fill-rule:nonzero}
   ]]>
  </style>
 </defs>
 <g id="Camada_x0020_1">
  <metadata id="CorelCorpID_0Corel-Layer"/>
  <g id="_795876888">
   <rect class="fil0" width="21639.8" height="10905.35"/>
   <g>
    <g>
     <path class="fil1" d="M5071.24 2784.85c0,655.8 -276.21,1247.04 -718.58,1663.66 -128.77,121.36 -271.63,227.89 -425.8,317.14 -22.93,13.05 -46.21,25.75 -69.85,38.1 -53.62,28.93 -108.65,55.39 -165.1,79.73 -277.98,120.3 -584.54,186.97 -906.62,186.97 -308.31,0 -602.18,-61.03 -870.64,-171.8 -63.5,-26.11 -125.23,-55.04 -185.55,-86.43 -201.78,-105.48 -385.94,-239.88 -546.79,-398.63 -421.56,-414.51 -682.61,-990.93 -682.61,-1628.74 0,-1262.56 1023.38,-2285.95 2285.59,-2285.95 1262.57,0 2285.95,1023.39 2285.95,2285.95z"/>
     <path class="fil2" d="M4352.66 4448.51c-128.77,121.36 -271.63,227.89 -425.8,317.14 -22.93,13.05 -46.21,25.75 -69.85,38.1 -53.62,28.93 -108.65,55.39 -165.1,79.73 -277.98,120.3 -584.54,186.97 -906.62,186.97 -308.31,0 -602.18,-61.03 -870.64,-171.8 -63.5,-26.11 -125.23,-55.04 -185.55,-86.43 -201.78,-105.48 -385.94,-239.88 -546.79,-398.63 115.71,-162.99 277.62,-289.98 467.06,-363l210.6 -81.14c198.28,-76.2 360.54,-218.36 462.49,-397.92l4.59 -8.12c3.87,-7.05 7.4,-14.11 11.28,-21.16 1.41,-2.47 2.47,-4.94 3.89,-7.76 25.74,-50.45 46.91,-103.37 63.14,-158.75 5.65,-19.76 10.95,-40.22 15.18,-60.68 0.7,-2.47 1.06,-5.29 1.76,-7.76l44.8 -217.3 0 -0.36 3.17 -14.46 34.57 -166.51 501.65 0 37.39 181.33 45.16 217.3c0.7,2.47 1.05,5.29 1.76,7.76 0.71,3.53 1.41,6.7 2.47,10.23 16.58,73.38 41.98,143.58 75.85,209.2 2.11,4.23 4.23,8.46 6.7,12.7 2.12,3.52 3.53,7.05 6,11.28l7.05 13.06c15.17,26.46 31.4,51.86 49.04,76.55 43.74,62.09 95.6,118.53 154.16,167.92 76.2,64.21 163.69,116.77 259.28,153.46l210.61 81.14c202.85,77.96 374.29,218.01 490.71,397.92z"/>
     <path class="fil3" d="M3093.27 3325.29c-62.44,12.7 -103.72,12.7 -103.72,12.7 0,0 -311.14,0 -519.28,-262.81l34.57 -166.51 501.65 0 82.55 398.63c0.7,2.47 1.05,5.29 1.76,7.76 0.71,3.53 1.41,6.7 2.47,10.23z"/>
     <path class="fil4" d="M3003.59 1279.83l0 0c-74.89,-47.66 -209.96,-102.2 -435.95,-102.2 -271.19,0 -438.76,163.16 -538.53,326.31 -87.05,142.34 -131.19,306.8 -135.95,473.59l-12.31 429.89c-8.96,313.01 -30.51,888.06 395.75,789.81l0 -412.49 961.23 -168.21 0 1237.73c382.12,-47.24 577.73,-390.83 577.73,-706.74l0 -1158.52c0,-824.46 -811.97,-709.17 -811.97,-709.17z"/>
     <path class="fil2" d="M3435.81 2142.1c-53.27,-614.88 -658.27,-620.17 -679.43,-620.17 -0.36,0 -0.71,0 -0.71,0 0,0 -0.36,0 -0.7,0 -21.16,0 -626.17,5.29 -679.43,620.17l-6.04 221.04c-3.56,130.32 17.54,261.19 70.63,380.22 188.39,422.47 615.55,422.47 615.55,422.47 0,0 427.17,0 615.55,-422.47 53.1,-119.03 74.19,-249.9 70.63,-380.22l-6.03 -221.04z"/>
     <path class="fil5" d="M4352.66 4448.51c-128.77,121.36 -271.63,227.89 -425.8,317.14 -22.93,13.05 -46.21,25.75 -69.85,38.1 -53.62,28.93 -108.65,55.39 -165.1,79.73 -277.98,120.3 -584.54,186.97 -906.62,186.97 -308.31,0 -602.18,-61.03 -870.64,-171.8 -63.5,-26.11 -125.23,-55.04 -185.55,-86.43 -201.78,-105.48 -385.94,-239.88 -546.79,-398.63 115.71,-162.99 277.62,-289.98 467.06,-363l210.6 -81.14c198.28,-76.2 360.54,-218.36 462.49,-397.92l4.59 -8.12c5.29,-8.11 8.12,-14.11 11.28,-21.16 1.41,-2.47 2.47,-4.94 3.89,-7.76 2.81,-42.34 -24.35,-90.67 -23.65,-139 0.36,-16.58 3.53,-33.16 12.71,-49.74 7.05,-12.7 40.21,-22.93 89.26,-30.69 87.13,-13.76 224.7,-20.46 359.12,-19.4l0.34 0c118.54,0.35 234.24,7.05 310.79,19.4 49.04,7.76 82.2,17.99 89.25,30.69 35.63,64.21 -14.81,131.59 -10.93,188.74 2.11,4.23 4.23,8.46 6.7,12.7 2.12,3.52 3.53,7.05 6,11.28l7.05 13.06c15.17,26.46 31.4,51.86 49.04,76.55 43.74,62.09 95.6,118.53 154.16,167.92 76.2,64.21 163.69,116.77 259.28,153.46l210.61 81.14c202.85,77.96 374.29,218.01 490.71,397.92z"/>
     <path class="fil4" d="M3022.22 1450.47c-210.68,368.74 -602.51,608.32 -1013.63,714.81 -26.28,-138.47 55.43,-281.4 142.93,-391.86 104.51,-131.97 228.49,-253.39 381.48,-323.55 152.97,-70.17 341.05,-79.27 489.22,0.6z"/>
     <path class="fil4" d="M2881.67 1459.92c17.57,70.7 66.61,128.87 116.03,182.39 155.19,168.02 334.57,321.44 549.27,400.32 14.57,-168.98 -77.3,-338.2 -202.89,-452.18 -119.87,-108.83 -305.56,-170.71 -462.41,-130.53z"/>
     <path class="fil6" d="M4352.66 4448.51c-128.77,121.36 -271.63,227.89 -425.8,317.14 -22.93,13.05 -46.21,25.75 -69.85,38.1 -21.87,-184.15 -79.02,-364.41 -170.04,-527.04 -27.86,-49.74 -58.91,-98.07 -99.48,-138.64 -55.74,-54.68 -126.29,-92.08 -192.62,-133.35 -113.94,-71.62 -218.36,-158.05 -308.67,-256.46 -43.74,-47.27 -85.37,-99.84 -98.07,-162.28 -6,-27.52 -5.64,-56.09 -13.76,-83.25 -17.99,-62.45 -77.61,-107.25 -141.1,-127 -63.5,-19.41 -131.59,-18.35 -198.26,-16.58 -76.57,1.76 -154.52,3.88 -229.66,16.58 -29.28,4.58 -58.57,10.93 -86.79,19.75 0.36,-16.58 3.53,-33.16 12.71,-49.74 7.05,-12.7 40.21,-22.93 89.26,-30.69 87.13,-13.76 224.7,-20.46 359.12,-19.4 118.52,0.35 234.58,7.05 311.13,19.4 49.04,7.76 82.2,17.99 89.25,30.69 35.63,64.21 -14.81,131.59 -10.93,188.74 2.11,4.23 4.23,8.46 6.7,12.7 2.12,3.52 3.53,7.05 6,11.28l7.05 13.06c15.17,26.46 31.4,51.86 49.04,76.55 43.74,62.09 95.6,118.53 154.16,167.92 76.2,64.21 163.69,116.77 259.28,153.46l210.61 81.14c202.85,77.96 374.29,218.01 490.71,397.92z"/>
     <path class="fil6" d="M2502.4 3431.16c-2.32,-22.4 -37.63,-22.62 -35.27,0 8.21,78.95 -7.42,153.77 -47.48,222.38 -11.49,19.68 19.01,37.43 30.47,17.81 42.93,-73.55 61.1,-155.39 52.28,-240.19z"/>
     <path class="fil6" d="M2651.7 3419.8c-3.82,-22.37 -37.81,-12.84 -34.01,9.38 12.46,73.2 0.9,144.85 -33.31,210.68 -10.46,20.14 19.98,37.99 30.47,17.78 38.86,-74.82 51,-154.76 36.85,-237.83z"/>
     <path class="fil6" d="M2746.23 3436.98l0 229.93c0,22.75 35.28,22.75 35.28,0l0 -229.93c0,-22.76 -35.28,-22.76 -35.28,0z"/>
     <path class="fil6" d="M2972.02 3643.92c-51.61,-55.74 -79.59,-124.64 -81.67,-200.56 -0.6,-22.68 -35.88,-22.75 -35.28,0 2.33,85.34 34.01,162.88 92.01,225.49 15.45,16.72 40.36,-8.29 24.94,-24.94z"/>
     <path class="fil6" d="M1914.66 4898.65c-63.5,-26.11 -125.23,-55.04 -185.55,-86.43l166.51 -503.76 19.04 590.19z"/>
     <path class="fil6" d="M3926.86 4765.65c-22.93,13.05 -46.21,25.75 -69.85,38.1 -53.62,28.93 -108.65,55.39 -165.1,79.73 30.34,-188.74 32.11,-389.46 -4.94,-606.77 148.17,111.48 213.44,283.27 239.88,488.94z"/>
     <path class="fil3" d="M2722.53 2239.54l0 403.57 68.41 0c117.24,0 -46.64,-357.22 -68.41,-403.57z"/>
     <path class="fil4" d="M3219.85 2082.27c-94.55,-46.71 -199.61,-53.66 -298.16,-14.46 -41.74,16.61 -23.57,84.88 18.77,68.05 80.75,-32.1 165.31,-31.43 243.79,7.34 40.64,20.07 76.38,-40.79 35.6,-60.93z"/>
     <path class="fil4" d="M3134.72 2207.97c-21.45,-37.26 -66.53,-35 -66.53,-35 -36.73,0 -66.54,29.81 -66.54,66.57 0,36.72 29.81,66.5 66.54,66.5 8.11,0 15.8,-1.62 22.96,-4.31l0.04 0.18c0.46,-0.14 0.74,-0.39 1.16,-0.53 2.15,-0.85 4.17,-1.9 6.21,-2.96 58.17,-25.23 64.38,-89.82 64.38,-89.82 -11.6,9.77 -28.22,-0.63 -28.22,-0.63z"/>
     <path class="fil4" d="M2291.49 2082.27c94.54,-46.71 199.63,-53.66 298.16,-14.46 41.74,16.61 23.56,84.88 -18.76,68.05 -80.74,-32.1 -165.3,-31.43 -243.79,7.34 -40.64,20.07 -76.4,-40.79 -35.61,-60.93z"/>
     <path class="fil4" d="M2376.6 2207.97c21.48,-37.26 66.54,-35 66.54,-35 36.74,0 66.54,29.81 66.54,66.57 0,36.72 -29.8,66.5 -66.54,66.5 -8.11,0 -15.78,-1.62 -22.97,-4.31l-0.02 0.18c-0.44,-0.14 -0.74,-0.39 -1.18,-0.53 -2.15,-0.85 -4.14,-1.9 -6.18,-2.96 -58.19,-25.23 -64.37,-89.82 -64.37,-89.82 11.6,9.77 28.18,-0.63 28.18,-0.63z"/>
     <path class="fil7" d="M2538.87 2787.29c23.45,87.56 111.49,152.75 216.79,152.75 105.31,0 193.36,-65.19 216.77,-152.75l-433.57 0z"/>
    </g>
    <g>
     <path class="fil1" d="M10427.18 2784.85c0,646.63 -268.45,1230.46 -700.24,1646.38 -155.93,150.28 -333.72,278.68 -527.39,379.93 -316.44,165.8 -676.26,259.28 -1057.97,259.28 -381.69,0 -741.51,-93.49 -1057.96,-259.28 -193.67,-101.25 -371.11,-229.3 -527.39,-379.93 -431.79,-415.57 -700.6,-999.76 -700.6,-1646.38 0,-1262.56 1023.39,-2285.95 2285.95,-2285.95 1262.21,0 2285.6,1023.39 2285.6,2285.95z"/>
     <path class="fil8" d="M9435.54 4503.65c-20.49,-31.18 -50.66,-55.28 -70.9,-86.6 -99.59,-154.03 83,-378 -15.49,-532.65 -20.25,-31.79 -50.38,-56.06 -73.98,-85.45 -49.28,-61.45 -67.49,-146.12 -47.73,-222.1 22.65,-87.27 91.97,-164.81 83.33,-254.55 -5.68,-59.02 -44.45,-108.9 -69.54,-162.74 -38.84,-83.39 -44.83,-181.29 -16.4,-268.7 27.87,-85.83 87.77,-163.93 88.02,-254.13 0.35,-131.2 -125.03,-234.73 -136.74,-365.43 -4.09,-45.54 6.14,-91.16 6.17,-136.91 0.07,-92.15 -43.67,-183.41 -115.85,-241.65 -36.33,-29.31 -80.47,-51.85 -104.81,-91.51 -38.7,-63.18 -14.96,-149.47 -52.21,-213.46 -63.89,-109.75 -241.18,-71.79 -342.85,-148.77 -76.56,-57.96 -101.43,-175.61 -191.92,-208.53 -37.32,-13.61 -79.02,-8.04 -119.66,6.32 -72.95,25.79 -153.88,25.79 -226.82,0 -40.64,-14.36 -82.34,-19.93 -119.67,-6.32 -90.48,32.92 -115.35,150.57 -191.91,208.53 -101.67,76.98 -278.96,39.02 -342.85,148.77 -37.25,63.99 -13.51,150.28 -52.25,213.46 -24.3,39.66 -68.44,62.2 -104.77,91.51 -72.18,58.25 -115.93,149.51 -115.86,241.65 0.04,45.75 10.27,91.37 6.18,136.91 -11.71,130.7 -137.09,234.23 -136.74,365.43 0.25,90.21 60.15,168.31 88.02,254.13 28.43,87.42 22.44,185.32 -16.4,268.7 -25.09,53.84 -63.86,103.72 -69.54,162.74 -8.64,89.75 60.68,167.29 83.33,254.55 19.75,75.99 1.55,160.66 -47.73,222.1 -23.6,29.39 -53.73,53.66 -73.98,85.45 -98.49,154.65 84.1,378.62 -15.49,532.65 -20.25,31.32 -50.41,55.42 -70.9,86.6 -20.5,31.22 -35.88,73.03 -11.33,101.21l2610.57 0c24.55,-28.18 9.17,-69.99 -11.33,-101.21z"/>
     <path class="fil2" d="M9726.94 4431.23c-155.93,150.28 -333.72,278.68 -527.39,379.93 -316.44,165.8 -676.26,259.28 -1057.97,259.28 -381.69,0 -741.51,-93.49 -1057.96,-259.28 -193.67,-101.25 -371.11,-229.3 -527.39,-379.93 91.72,-135.82 215.55,-247.64 360.53,-325.61 38.1,-20.81 77.61,-39.16 118.53,-55.03l136.18 -52.56 74.43 -28.58c105.13,-40.57 200.38,-99.48 281.51,-172.86 141.11,-127.35 240.94,-297.73 280.8,-489.29l25.05 -121.01 20.11 -96.3 37.39 -181.33 501.64 0 37.39 181.33 45.16 217.3c8.82,42.68 20.81,84.31 35.63,124.53 50.8,140.76 135.47,265.98 245.52,365.11 81.14,73.03 176.04,131.94 281.16,172.51l5.29 2.12 69.14 26.46 136.18 52.56c40.92,15.87 80.43,34.22 118.53,55.03 144.99,77.97 268.81,189.8 360.53,325.61z"/>
     <path class="fil3" d="M8510.58 3431.83c-88.9,23.99 -152.05,23.99 -152.05,23.99 0,0 -316.43,0 -525.27,-269.52l57.5 -277.62 501.64 0 82.55 398.63c8.82,42.68 20.81,84.31 35.63,124.53z"/>
     <path class="fil2" d="M9003.33 2219.18c-4.3,-28.15 -14.71,-56.72 -36.19,-75.42 -19.41,-16.83 -46.04,-23.81 -71.69,-22.68 -25.68,1.09 -50.48,9.66 -73.59,20.85 0,0 -0.35,-92.19 -13.09,-207.51 -25.22,-228.76 -218.36,-402.15 -448.51,-402.15l-437.36 0c-230.14,0 -423.29,173.39 -448.51,402.15 -12.74,115.32 -13.09,207.51 -13.09,207.51 -23.11,-11.19 -47.91,-19.76 -73.59,-20.85 -25.65,-1.13 -52.28,5.85 -71.69,22.68 -21.48,18.7 -31.89,47.27 -36.19,75.42 -8.57,56.48 4.94,116.07 37.08,163.3 32.17,47.24 79.62,82.77 135.32,95.5 98.29,687.86 689.34,687.86 689.34,687.86 0,0 591.07,0 689.35,-687.86 55.7,-12.73 103.15,-48.26 135.32,-95.5 32.14,-47.23 45.65,-106.82 37.08,-163.3z"/>
     <path class="fil8" d="M8791.43 1793.29c-70.38,-32.64 -140.76,-65.27 -211.14,-97.9 -79.16,-36.69 -178.29,-71.65 -247.43,-18.52 -55.99,43.04 -66.89,128.37 -124.85,168.73 -105.65,73.59 -265.24,-58.63 -374.28,9.84 -73.21,45.97 -75.53,153.89 -132.9,218.51 -45.4,51.15 -119.09,68.29 -168.09,115.99 -75.92,73.91 -71.3,194.91 -62.8,300.48 8.5,105.63 9.07,227.85 -70.91,297.35 -75.7,-5.4 -122.45,-69.18 -146.22,-141.29 -62.73,-190.25 -9.53,-398.24 58.77,-586.55 54.47,-150.18 120.54,-300.17 229.86,-416.59 213.71,-227.6 560.45,-287.08 867.74,-231.94 100.3,17.96 202.28,48.55 278.69,115.96 74.08,65.41 104.07,167.11 103.54,265.92z"/>
     <path class="fil9" d="M9199.55 4811.16c-316.44,165.8 -676.26,259.28 -1057.97,259.28 -381.69,0 -741.51,-93.49 -1057.96,-259.28 16.94,-58.21 30.7,-117.12 41.98,-175.68 2.12,-10.24 3.89,-20.47 5.65,-30.7 43.74,-246.23 44.45,-480.12 40.22,-606.76l74.43 -28.58c105.13,-40.57 200.38,-99.48 281.51,-172.86 -56.8,798.67 614.17,681.19 614.17,681.19 0,0 670.97,117.48 614.53,-680.84 81.14,73.03 176.04,131.94 281.16,172.51l5.29 2.12 69.14 26.46c-4.23,126.64 -3.88,360.52 39.87,606.76 12.34,68.44 28.22,138.29 47.98,206.38z"/>
     <path class="fil10" d="M9199.55 4811.16c-316.44,165.8 -676.26,259.28 -1057.97,259.28 -381.69,0 -741.51,-93.49 -1057.96,-259.28 16.94,-58.21 30.7,-117.12 41.98,-175.68 26.46,-11.65 52.92,-21.88 78.67,-30.7 206.03,-69.14 396.52,-48.33 548.92,0 215.54,68.09 355.23,190.86 355.23,190.86 138.65,-119.24 267.75,-174.28 382.4,-190.86 56.45,-8.46 109.72,-7.4 158.75,0 219.78,32.46 356.3,190.86 356.3,190.86 -9.17,-67.03 -15.52,-130.53 -19.05,-190.86 -19.05,-299.14 22.93,-515.75 55.74,-633.22l69.14 26.46c-4.23,126.64 -3.88,360.52 39.87,606.76 12.34,68.44 28.22,138.29 47.98,206.38z"/>
     <path class="fil3" d="M8108.46 2239.54l0 403.57 68.4 0c117.23,0 -46.63,-357.22 -68.4,-403.57z"/>
     <path class="fil8" d="M8605.76 2082.27c-94.54,-46.71 -199.6,-53.66 -298.16,-14.46 -41.73,16.61 -23.56,84.88 18.77,68.05 80.75,-32.1 165.31,-31.43 243.79,7.34 40.64,20.07 76.38,-40.79 35.6,-60.93z"/>
     <path class="fil4" d="M8520.63 2207.97c-21.44,-37.26 -66.53,-35 -66.53,-35 -36.72,0 -66.53,29.81 -66.53,66.57 0,36.72 29.81,66.5 66.53,66.5 8.11,0 15.8,-1.62 22.97,-4.31l0.03 0.18c0.46,-0.14 0.74,-0.39 1.17,-0.53 2.15,-0.85 4.16,-1.9 6.2,-2.96 58.18,-25.23 64.39,-89.82 64.39,-89.82 -11.61,9.77 -28.23,-0.63 -28.23,-0.63z"/>
     <path class="fil8" d="M7677.41 2082.27c94.54,-46.71 199.6,-53.66 298.16,-14.46 41.73,16.61 23.56,84.88 -18.77,68.05 -80.75,-32.1 -165.31,-31.43 -243.8,7.34 -40.64,20.07 -76.37,-40.79 -35.59,-60.93z"/>
     <path class="fil4" d="M7762.53 2207.97c21.45,-37.26 66.54,-35 66.54,-35 36.72,0 66.53,29.81 66.53,66.57 0,36.72 -29.81,66.5 -66.53,66.5 -8.12,0 -15.81,-1.62 -22.97,-4.31l-0.03 0.18c-0.46,-0.14 -0.74,-0.39 -1.17,-0.53 -2.15,-0.85 -4.16,-1.9 -6.21,-2.96 -58.17,-25.23 -64.38,-89.82 -64.38,-89.82 11.61,9.77 28.22,-0.63 28.22,-0.63z"/>
     <path class="fil7" d="M7924.78 2787.29c23.46,87.56 111.51,152.75 216.8,152.75 105.31,0 193.36,-65.19 216.78,-152.75l-433.59 0z"/>
    </g>
    <g>
     <path class="fil1" d="M15783.26 2784.85c0,542.92 -189.44,1041.74 -505.87,1433.66 -168.28,209.2 -372.88,387.69 -603.95,526.34 -52.21,31.75 -106.19,61.38 -161.22,88.54 -305.49,151.7 -650.15,237.06 -1014.92,237.06 -364.76,0 -709.41,-85.37 -1014.91,-237.06 -55.04,-27.16 -109.01,-56.79 -161.22,-88.54 -231.06,-138.65 -435.67,-317.14 -603.95,-526.34 -316.43,-391.92 -505.87,-890.74 -505.87,-1433.66 0,-1262.56 1023.39,-2285.95 2285.94,-2285.95 1262.56,0 2285.95,1023.39 2285.95,2285.95z"/>
     <path class="fil4" d="M14291.85 1709.47c-6.07,-76.35 -55.03,-103.05 -55.03,-103.05 -3.81,-53.45 -53.41,-76.34 -53.41,-76.34 -19.09,-53.45 -80.15,-68.69 -80.15,-68.69 -22.9,-53.44 -95.43,-55.38 -95.43,-55.38 -26.71,-47.73 -95.43,-40.04 -95.43,-40.04 -30.51,-41.98 -118.28,-38.17 -118.28,-38.17 -22.93,-45.8 -118.32,-30.56 -118.32,-30.56 -38.18,-41.94 -106.9,-7.62 -106.9,-7.62 -15.24,-57.25 -71.61,-11.92 -71.61,-11.92 0,0 -56.37,-45.33 -71.65,11.92 0,0 -68.69,-34.32 -106.86,7.62 0,0 -95.42,-15.24 -118.32,30.56 0,0 -87.77,-3.81 -118.32,38.17 0,0 -68.68,-7.69 -95.38,40.04 0,0 -72.53,1.94 -95.43,55.38 0,0 -61.06,15.24 -80.15,68.69 0,0 -49.6,22.89 -53.44,76.34 0,0 -48.93,26.7 -55,103.05 -6.07,76.3 23.11,133.56 153.56,190.81l0 0c402.96,-203.94 878.95,-203.94 1281.96,0l0 0c130.45,-57.25 159.59,-114.51 153.56,-190.81z"/>
     <path class="fil4" d="M13803.33 1437.17l-612.06 0c-269.78,0 -488.5,218.71 -488.5,488.51l0 368.61 1589.07 0 0 -368.61c0,-269.79 -218.71,-488.51 -488.52,-488.51z"/>
     <path class="fil11" d="M15277.39 4218.5c-168.28,209.2 -372.88,387.69 -603.95,526.34 -52.21,31.75 -106.19,61.38 -161.22,88.54 -305.49,151.7 -650.15,237.06 -1014.92,237.06 -364.76,0 -709.41,-85.37 -1014.91,-237.06 -55.04,-27.16 -109.01,-56.79 -161.22,-88.54 -231.06,-138.65 -435.67,-317.14 -603.95,-526.34 61.39,-203.55 223.3,-364.05 431.79,-421.56l547.86 -151.34 57.5 -15.87 101.95 -28.23 208.85 -57.85 83.24 -466.01 1.77 -10.58 1.41 -9.18 26.81 -149.22 318.9 124.88 318.9 -124.88 26.81 149.22 20.11 114.66 35.63 200.02 30.69 171.1 208.85 57.85 101.95 28.23 57.5 15.87 547.86 151.34c208.49,57.51 370.4,218.01 431.79,421.56z"/>
     <path class="fil12" d="M14240.24 3629.74c-22.23,101.6 -122.41,385.22 -548.21,417.67l-92.42 342.19c-12.7,46.21 -54.33,78.32 -102.31,78.32 -47.63,0 -89.61,-32.11 -102.31,-78.32l-92.42 -342.19c-426.14,-32.45 -525.98,-316.07 -548.2,-417.67l101.95 -28.23 208.85 -57.85 113.23 -634.99 318.9 124.88 318.9 -124.88 113.24 634.99 208.85 57.85 101.95 28.23z"/>
     <path class="fil2" d="M14138.29 3601.51c-21.52,107.6 -115.36,343.25 -528.1,343.25l-112.89 417.32 -112.89 -417.32c-412.73,0 -506.57,-235.65 -528.09,-343.25l208.85 -57.85 83.24 -466.01 29.99 -168.98 318.9 124.88 318.9 -124.88 82.55 463.89 30.69 171.1 208.85 57.85z"/>
     <path class="fil3" d="M13898.76 3372.56c-105.13,33.87 -184.5,33.87 -184.5,33.87 0,0 -361.24,0 -565.85,-328.78l29.99 -168.98 318.9 124.88 318.9 -124.88 82.55 463.89z"/>
     <path class="fil2" d="M14359.06 2219.18c-4.31,-28.15 -14.72,-56.72 -36.2,-75.42 -19.4,-16.83 -46.04,-23.81 -71.68,-22.68 -25.69,1.09 -50.49,9.66 -73.59,20.85 0,0 -2.3,-473.95 -232.83,-481.5 -151.16,-7.59 -218.43,37.78 -447.45,37.78 -229.05,0 -296.29,-45.37 -447.44,-37.78 -230.53,7.55 -232.83,481.5 -232.83,481.5 -23.1,-11.19 -47.94,-19.76 -73.59,-20.85 -25.64,-1.13 -52.28,5.85 -71.68,22.68 -21.49,18.7 -31.89,47.27 -36.2,75.42 -8.6,56.48 4.94,116.07 37.08,163.3 32.17,47.24 79.62,82.77 135.33,95.5 98.28,687.86 689.33,687.86 689.33,687.86 0,0 591.07,0 689.34,-687.86 55.71,-12.73 103.15,-48.26 135.33,-95.5 32.14,-47.23 45.65,-106.82 37.08,-163.3z"/>
     <path class="fil12" d="M12482.4 4833.38c-55.04,-27.16 -109.01,-56.79 -161.22,-88.54l144.28 -436.38 16.94 524.92z"/>
     <path class="fil12" d="M14673.44 4744.84c-52.21,31.75 -106.19,61.38 -161.22,88.54l16.93 -524.92 144.29 436.38z"/>
     <path class="fil3" d="M13464.18 2199.96l0 403.6 68.41 0c117.23,0 -46.64,-357.21 -68.41,-403.6z"/>
     <path class="fil4" d="M13961.48 2042.72c-94.54,-46.7 -199.6,-53.65 -298.15,-14.46 -41.74,16.62 -23.57,84.88 18.76,68.02 80.76,-32.07 165.32,-31.4 243.8,7.37 40.64,20.07 76.38,-40.78 35.59,-60.93z"/>
     <path class="fil4" d="M13876.36 2199.96c0,36.76 -29.78,66.53 -66.53,66.53 -36.73,0 -66.54,-29.77 -66.54,-66.53 0,-36.73 29.81,-66.54 66.54,-66.54 36.75,0 66.53,29.81 66.53,66.54z"/>
     <path class="fil4" d="M13033.14 2042.72c94.54,-46.7 199.6,-53.65 298.15,-14.46 41.74,16.62 23.57,84.88 -18.77,68.02 -80.75,-32.07 -165.31,-31.4 -243.79,7.37 -40.63,20.07 -76.37,-40.78 -35.59,-60.93z"/>
     <path class="fil4" d="M13118.22 2199.96c0,36.76 29.81,66.53 66.57,66.53 36.73,0 66.54,-29.77 66.54,-66.53 0,-36.73 -29.81,-66.54 -66.54,-66.54 -36.76,0 -66.57,29.81 -66.57,66.54z"/>
     <path class="fil7" d="M13280.49 2768.45c23.46,87.56 111.52,152.75 216.81,152.75 105.3,0 193.36,-65.19 216.77,-152.75l-433.59 0z"/>
    </g>
    <g>
     <path class="fil1" d="M5071.24 8118.36c0,668.85 -287.15,1270.68 -745.04,1688.71 -95.6,87.13 -198.62,166.16 -307.97,236.35 -355.59,228.59 -778.91,360.88 -1232.93,360.88 -475.18,0 -916.5,-144.99 -1281.96,-393.34 -104.43,-70.91 -202.84,-150.28 -293.85,-236.7 -437.08,-416.62 -709.77,-1004.34 -709.77,-1655.9 0,-1262.55 1023.38,-2285.94 2285.59,-2285.94 1262.57,0 2285.95,1023.39 2285.95,2285.94z"/>
     <path class="fil2" d="M4326.2 9807.07c-95.6,87.13 -198.62,166.16 -307.97,236.35 -355.59,228.59 -778.91,360.88 -1232.93,360.88 -475.18,0 -916.5,-144.99 -1281.96,-393.34 -104.43,-70.91 -202.84,-150.28 -293.85,-236.7 113.24,-145.35 264.93,-258.93 439.9,-326.31l210.6 -81.14c287.86,-110.77 499.53,-360.17 562.33,-662.14l16.58 -80.79 28.22 -136.52 0 -0.36 37.74 -180.97 501.65 0 37.39 181.33 45.16 217.3c12.34,59.26 30.34,116.77 53.62,171.45 95.6,223.3 277.62,401.8 508.69,490.7l210.61 81.14c188.03,72.32 348.89,197.91 464.25,359.12z"/>
     <path class="fil3" d="M3142.66 8876.11c-98.07,29.28 -170.04,29.28 -170.04,29.28 0,0 -325.96,0 -533.74,-281.51l65.96 -317.84 501.65 0 82.55 398.63c12.34,59.26 30.34,116.77 53.62,171.45z"/>
     <path class="fil4" d="M2734.13 6365.28c-138.5,-83.71 -318.38,-94.65 -466.02,-28.33 -147.63,66.33 -258.91,208.07 -288.31,367.23 -14.12,76.49 -10.32,155.02 -6.47,232.69 7.53,152.08 15.07,304.15 22.6,456.2 5.89,118.96 11.1,242.21 -33.19,352.77 -32.65,81.51 -90.05,150.27 -146.54,217.5 -55.11,65.62 -110.21,131.23 -165.31,196.85 -19.04,22.65 -38.64,46.43 -45.65,75.18 -17.25,70.69 53.04,138.32 125.33,146.75 72.29,8.4 142.39,-24.02 207.95,-55.63 -4.94,36.05 -11.09,57.22 -6.22,93.27 4.88,36.06 20.15,72.04 48.45,94.9 32.32,26.07 78.17,31.57 118.16,20.39 39.97,-11.18 74.46,-37.36 102.06,-68.4 -22.14,56.09 47.23,136.13 106.49,125.02 59.25,-11.07 100.27,-66.43 122.07,-122.62 46.75,-120.55 31.9,-255.16 14.3,-383.25 -24.21,-176.43 -52.36,-353.15 -52.49,-531.23 -0.11,-174.02 26.56,-346.88 55.16,-518.54 19.83,-119.02 40.88,-238.75 84.26,-351.32 43.39,-112.61 105.72,-248.59 203.39,-319.43z"/>
     <path class="fil13" d="M2923.83 6467.45c0,92.88 -75.29,168.16 -168.17,168.16 -92.87,0 -168.19,-75.28 -168.19,-168.16 0,-92.89 75.32,-168.21 168.19,-168.21 92.88,0 168.17,75.32 168.17,168.21z"/>
     <path class="fil4" d="M3452.35 6844.84c-81.6,-166.2 -237.58,-258.19 -381.31,-309.03 -204.47,-72.32 -426.29,-72.32 -630.75,0 -143.74,50.84 -299.72,142.84 -381.3,309.03 -147.46,306.83 -122.36,784.17 -122.36,784.17l153.74 177.3 665.29 -91.75 665.28 91.75 153.75 -177.3c0,0 25.11,-477.34 -122.35,-784.17z"/>
     <path class="fil2" d="M3617.49 7616.38c-4.24,-27.87 -14.82,-56.45 -36.34,-75.14 -19.4,-16.94 -45.86,-23.99 -71.61,-22.93 -25.76,1.05 -50.45,9.87 -73.73,21.16 -31.75,-370.76 -301.97,-551.03 -492.12,-632.17 -0.35,0 -0.35,0 -0.35,0 -106.54,-45.86 -187.68,-60.67 -187.68,-60.67 0,0 -81.13,14.81 -187.67,60.67 0,0 0,0 -0.36,0 -190.14,81.14 -460.36,261.4 -492.11,632.17 -23.29,-11.29 -47.99,-20.11 -73.73,-21.16 -25.75,-1.06 -52.21,5.99 -71.62,22.93 -21.52,18.69 -32.11,47.27 -36.34,75.14 -8.45,56.79 4.94,116.06 37.05,163.33 32.11,47.27 79.73,82.9 135.46,95.6 98.07,687.89 689.31,687.89 689.31,687.89 0,0 591.25,0 689.31,-687.89 55.74,-12.7 103.36,-48.33 135.47,-95.6 32.1,-47.27 45.5,-106.54 37.04,-163.33z"/>
     <path class="fil14" d="M4018.23 10043.43c-355.59,228.59 -778.91,360.88 -1232.93,360.88 -475.18,0 -916.5,-144.99 -1281.96,-393.34l28.23 -89.25 70.19 -221.53c21.53,-67.38 112.55,-120.65 204.27,-120.65 56.08,0 100.88,19.75 124.17,50.44 37.05,-30.69 91.02,-50.44 147.11,-50.44 56.08,0 102.3,19.75 128.06,50.44 34.92,-30.69 87.13,-50.44 143.22,-50.44 56.44,0 104.07,19.75 131.95,50.44 32.45,-30.69 83.24,-50.44 139.35,-50.44 56.44,0 105.47,19.75 135.81,50.44 30.33,-30.69 79.38,-50.44 135.82,-50.44 56.09,0 106.89,19.75 139.35,50.44 27.87,-30.69 75.49,-50.44 131.94,-50.44 56.09,0 108.3,19.75 143.22,50.44 25.76,-30.69 71.97,-50.44 128.06,-50.44 56.09,0 110.07,19.75 147.11,50.44 23.28,-30.69 68.09,-50.44 124.18,-50.44 91.72,0 182.74,53.27 204.26,120.65l70.2 221.53 38.45 121.71z"/>
     <path class="fil13" d="M4018.23 10043.43c-355.59,228.59 -778.91,360.88 -1232.93,360.88 -475.18,0 -916.5,-144.99 -1281.96,-393.34l28.23 -89.25c41.27,-20.81 92.06,-33.51 143.21,-33.51 63.86,0 115.02,19.75 141.47,50.44 41.98,-30.69 103.37,-50.44 167.21,-50.44 63.86,0 116.42,19.75 146.06,50.44 39.51,-30.69 99.12,-50.44 162.98,-50.44 64.21,0 118.18,19.75 149.93,50.44 37.05,-30.69 94.89,-50.44 158.75,-50.44 64.21,0 119.95,19.75 154.52,50.44 34.58,-30.69 90.31,-50.44 154.52,-50.44 63.85,0 121.71,19.75 158.75,50.44 31.75,-30.69 85.72,-50.44 149.93,-50.44 63.85,0 123.47,19.75 162.98,50.44 29.64,-30.69 82.2,-50.44 146.05,-50.44 63.85,0 125.24,19.75 167.22,50.44 26.46,-30.69 77.61,-50.44 141.46,-50.44 51.16,0 101.96,12.7 143.23,33.51l38.45 121.71z"/>
     <path class="fil3" d="M2722.53 7559.1l0 403.59 68.41 0c117.24,0 -46.64,-357.24 -68.41,-403.59z"/>
     <path class="fil4" d="M3219.85 7401.83c-94.55,-46.67 -199.61,-53.62 -298.16,-14.43 -41.74,16.58 -23.57,84.84 18.77,68.02 80.75,-32.11 165.31,-31.44 243.79,7.33 40.64,20.08 76.38,-40.74 35.6,-60.92z"/>
     <path class="fil4" d="M3134.72 7527.56c-21.45,-37.26 -66.53,-35 -66.53,-35 -36.73,0 -66.54,29.78 -66.54,66.54 0,36.76 29.81,66.53 66.54,66.53 8.11,0 15.8,-1.66 22.96,-4.3l0.04 0.17c0.46,-0.14 0.74,-0.42 1.16,-0.56 2.15,-0.85 4.17,-1.91 6.21,-2.96 58.17,-25.23 64.38,-89.82 64.38,-89.82 -11.6,9.77 -28.22,-0.6 -28.22,-0.6z"/>
     <path class="fil4" d="M2291.49 7401.83c94.54,-46.67 199.63,-53.62 298.16,-14.43 41.74,16.58 23.56,84.84 -18.76,68.02 -80.74,-32.11 -165.3,-31.44 -243.79,7.33 -40.64,20.08 -76.4,-40.74 -35.61,-60.92z"/>
     <path class="fil4" d="M2376.6 7527.56c21.48,-37.26 66.54,-35 66.54,-35 36.74,0 66.54,29.78 66.54,66.54 0,36.76 -29.8,66.53 -66.54,66.53 -8.11,0 -15.78,-1.66 -22.95,-4.3l-0.04 0.17c-0.44,-0.14 -0.74,-0.42 -1.16,-0.56 -2.17,-0.85 -4.16,-1.91 -6.2,-2.96 -58.19,-25.23 -64.37,-89.82 -64.37,-89.82 11.6,9.77 28.18,-0.6 28.18,-0.6z"/>
     <path class="fil7" d="M2538.87 8106.82c23.45,87.6 111.49,152.79 216.79,152.79 105.31,0 193.36,-65.19 216.77,-152.79l-433.57 0z"/>
    </g>
    <g>
     <path class="fil1" d="M15783.09 8118.36c0,660.03 -279.74,1254.8 -727.41,1672.13 -149.57,139.7 -317.84,259.28 -500.93,354.88 -53.27,27.87 -107.6,53.62 -162.98,77.26 -76.2,32.46 -154.17,61.03 -234.24,84.67 -53.62,16.22 -107.95,30.69 -162.98,42.68 -18.35,4.24 -37.04,8.12 -55.74,11.64 -142.88,28.23 -290.33,42.69 -441.32,42.69 -150.98,0 -298.44,-14.46 -441.31,-42.69 -58.21,-11.28 -115.36,-24.69 -171.8,-40.57 -15.53,-4.23 -31.4,-8.81 -46.92,-13.75 -80.08,-23.99 -158.4,-52.21 -234.59,-84.67 -55.39,-23.64 -110.07,-49.39 -162.98,-77.26 -183.09,-95.6 -351.36,-215.19 -500.94,-354.53 -447.66,-417.68 -727.41,-1012.45 -727.41,-1672.48 0,-1262.55 1023.39,-2285.94 2285.95,-2285.94 1262.21,0 2285.6,1023.39 2285.6,2285.94z"/>
     <path class="fil4" d="M14316.7 7570.67l-0.18 -0.07c0.1,-1.7 24.83,-439.73 -122.34,-721.55 -81.6,-152.93 -237.59,-237.59 -381.31,-284.37 -204.47,-66.57 -426.29,-66.57 -630.76,0 -143.72,46.78 -299.71,131.45 -381.31,284.37 -147.18,281.82 -122.45,719.82 -122.37,721.55l-0.15 0.07c-21.69,388.24 -299.25,735.37 -97.29,948.23 393.51,336.58 916.49,-207.11 916.49,-207.11 0,0 522.99,543.69 916.5,207.11 201.97,-212.86 -75.6,-559.99 -97.29,-948.23z"/>
     <path class="fil8" d="M15055.67 9790.49c-149.57,139.7 -317.84,259.28 -500.93,354.88 -53.27,27.87 -107.6,53.62 -162.98,77.26 -76.2,32.46 -154.17,61.03 -234.24,84.67 -53.62,16.22 -107.95,30.69 -162.98,42.68 -18.35,4.24 -37.04,8.12 -55.74,11.64 -142.88,28.23 -290.33,42.69 -441.32,42.69 -150.98,0 -298.44,-14.46 -441.31,-42.69 -58.21,-11.28 -115.36,-24.69 -171.8,-40.57 -15.53,-4.23 -31.4,-8.81 -46.92,-13.75 -80.08,-23.99 -158.4,-52.21 -234.59,-84.67 -55.39,-23.64 -110.07,-49.39 -162.98,-77.26 -183.09,-95.6 -351.36,-215.19 -500.94,-354.53 114.3,-153.46 270.57,-273.04 452.25,-342.89l210.61 -81.14c12.7,-4.94 25.4,-10.23 37.75,-15.52 9.52,-4.23 19.05,-8.47 28.22,-13.05 9.88,-4.59 19.76,-9.53 29.28,-14.82 10.23,-4.94 20.46,-10.58 30.34,-16.58 27.52,-15.52 53.98,-32.46 79.38,-50.8l0 -0.35c11.64,-8.12 22.93,-16.58 33.86,-25.4 95.25,-75.85 173.92,-170.04 232.12,-276.57 41.98,-77.26 73.03,-160.87 91.37,-249.05l13.05 -62.09 22.23 -107.6 0 -0.35 9.88 -47.27 37.39 -181.33 501.64 0 37.39 181.33 9.88 47.62 35.28 169.69c3.17,15.52 6.7,30.69 10.94,45.86 3.88,15.87 8.46,31.75 13.4,47.27 4.59,14.46 9.88,28.58 15.17,42.69 3.88,10.23 7.76,20.1 12,29.98 3.52,8.12 6.7,16.23 10.58,23.99 4.58,10.23 9.17,20.11 14.11,29.99 4.94,9.88 9.88,19.75 15.17,29.28 31.75,58.21 69.85,113.24 113.59,162.98 45.16,51.86 96.31,98.78 152.4,139l0 0.35c32.81,23.63 67.38,45.15 103.37,64.2 14.81,8.12 29.63,15.53 45.15,22.58 18.35,8.47 37.4,16.58 56.45,23.99l210.61 81.14c181.68,69.85 337.95,189.44 451.89,342.54z"/>
     <path class="fil15" d="M15055.67 9790.49c-149.57,139.7 -317.84,259.28 -500.93,354.88 -53.27,27.87 -107.6,53.62 -162.98,77.26 -76.2,32.46 -154.17,61.03 -234.24,84.67 -53.62,16.22 -107.95,30.69 -162.98,42.68 13.05,-410.97 35.63,-821.95 41.27,-1233.28l0 -1.06c45.16,51.86 96.66,99.13 153.11,139.7l0.35 0c32.46,24.34 66.68,45.86 102.31,64.91 14.81,8.12 29.63,15.53 45.15,22.58 18.35,8.47 37.4,16.58 56.45,23.99l210.61 81.14c181.68,69.85 337.95,189.44 451.89,342.54z"/>
     <path class="fil15" d="M12884.38 10321.05c-15.53,-4.23 -31.4,-8.81 -46.92,-13.75 -80.08,-23.99 -158.4,-52.21 -234.59,-84.67 -55.39,-23.64 -110.07,-49.39 -162.98,-77.26 -183.09,-95.6 -351.36,-215.19 -500.94,-354.53 114.3,-153.46 270.57,-273.04 452.25,-342.89l210.61 -81.14c12.7,-4.94 25.4,-10.23 37.75,-15.52 9.52,-4.23 19.05,-8.47 28.22,-13.05 9.88,-4.59 19.76,-9.53 29.28,-14.82 10.23,-5.29 20.46,-10.94 30.34,-16.58 27.16,-15.88 53.27,-32.81 78.32,-51.51l0.35 0c11.64,-8.46 23.28,-17.28 34.57,-26.1l0 1.06c1.77,252.58 12,504.46 34.22,755.98 9.88,111.48 10.23,222.94 9.53,334.77z"/>
     <path class="fil2" d="M13922.23 8953.72c-105.48,121 -256.81,196.85 -424.74,196.85 -167.92,0 -319.25,-75.85 -424.73,-196.85 41.98,-77.26 73.03,-160.87 91.37,-249.05l13.05 -62.09 69.5 -336.54 501.64 0 82.55 398.63c6.7,31.75 14.82,62.79 24.34,93.13 17.64,54.33 40.22,106.54 67.03,155.93z"/>
     <path class="fil3" d="M13855.2 8797.8c-120.3,44.45 -215.19,44.45 -215.19,44.45 0,0 -258.93,0 -462.84,-199.67l69.5 -336.54 501.64 0 82.55 398.63c6.7,31.75 14.82,62.79 24.34,93.13z"/>
     <path class="fil4" d="M14503.59 8557.74c63.07,-42.94 152.47,-33.55 214.87,10.33 62.37,43.92 100.09,116.38 116.67,190.85 16.58,74.48 14.18,151.73 10.55,227.92 -77.86,48.05 -192.41,57.61 -275.16,18.63 -82.8,-38.98 -143.51,-121.5 -156.07,-212.09 -12.59,-90.63 13.51,-184.18 89.15,-235.64z"/>
     <path class="fil8" d="M14538.41 8550.22c0,48.79 -39.55,88.3 -88.3,88.3 -48.79,0 -88.34,-39.51 -88.34,-88.3 0,-48.79 39.55,-88.3 88.34,-88.3 48.75,0 88.3,39.51 88.3,88.3z"/>
     <path class="fil4" d="M12491.39 8557.74c-63.07,-42.94 -152.47,-33.55 -214.87,10.33 -62.41,43.92 -100.09,116.38 -116.67,190.85 -16.58,74.48 -14.18,151.73 -10.55,227.92 77.86,48.05 192.41,57.61 275.16,18.63 82.8,-38.98 143.51,-121.5 156.07,-212.09 12.59,-90.63 -13.51,-184.18 -89.15,-235.64z"/>
     <path class="fil8" d="M12456.57 8550.22c0,48.79 39.55,88.3 88.3,88.3 48.79,0 88.34,-39.51 88.34,-88.3 0,-48.79 -39.55,-88.3 -88.34,-88.3 -48.75,0 -88.3,39.51 -88.3,88.3z"/>
     <path class="fil2" d="M14359.31 7616.38c-4.23,-27.87 -14.82,-56.45 -36.34,-75.14 -19.4,-16.94 -45.86,-23.99 -71.61,-22.93 -25.75,1.05 -50.45,9.87 -73.73,21.16 1.76,-92.78 -4.59,-174.27 -17.64,-245.52 -38.8,-215.55 -137.23,-341.13 -246.58,-413.45 -190.15,-126.29 -413.8,-127.63 -415.92,-127.28 -2.11,-0.35 -225.76,0.99 -415.91,127.28 -109.36,72.32 -207.79,197.91 -246.58,413.45 -13.05,71.26 -19.4,152.75 -17.64,245.52 -23.28,-11.29 -47.98,-20.11 -73.73,-21.16 -25.75,-1.06 -52.21,5.99 -71.62,22.93 -21.51,18.69 -32.1,47.27 -36.33,75.14 -8.47,56.79 4.94,116.06 37.04,163.33 32.1,47.27 79.73,82.9 135.47,95.6 98.07,687.89 689.3,687.89 689.3,687.89 0,0 591.25,0 689.31,-687.89 55.74,-12.7 103.37,-48.33 135.47,-95.6 32.1,-47.27 45.51,-106.54 37.04,-163.33z"/>
     <path class="fil16" d="M14289.46 9553.08l-131.94 754.22c-53.62,16.22 -107.95,30.69 -162.98,42.68 -18.35,4.24 -37.04,8.12 -55.74,11.64l-87.14 -1339.11 -14.46 -218.36 -6.35 -99.48c0,0 430.73,165.8 456.48,337.95 23.99,161.92 -85.37,208.14 -98.07,212.72l-0.35 0c-0.35,0.36 -0.71,0.36 -0.71,0.36l0 0.35 69.85 119.94c31.05,53.63 41.98,116.42 31.4,177.1z"/>
     <path class="fil16" d="M13164.13 8704.67l-20.81 317.84 -87.14 1339.11c-58.21,-11.28 -115.36,-24.69 -171.8,-40.57 -15.53,-4.23 -31.4,-8.81 -46.92,-13.75l-131.94 -754.22c-10.58,-60.68 0.35,-123.47 31.4,-177.1l69.85 -119.94 0 -0.35c0,0 -0.36,0 -0.71,-0.36l-0.35 0c-12.7,-4.58 -122.06,-50.8 -98.07,-212.72 25.75,-172.16 456.48,-337.95 456.48,-337.95z"/>
     <path class="fil16" d="M12602.87 10222.63c-55.39,-23.64 -110.07,-49.39 -162.98,-77.26l74.79 -391.22 88.19 468.48z"/>
     <path class="fil16" d="M14554.74 10145.38c-53.27,27.87 -107.6,53.62 -162.98,77.26l88.19 -468.48 74.79 391.22z"/>
     <path class="fil3" d="M13464.37 7559.1l0 403.59 68.4 0c117.23,0 -46.63,-357.24 -68.4,-403.59z"/>
     <path class="fil4" d="M13961.67 7401.83c-94.54,-46.67 -199.6,-53.62 -298.16,-14.43 -41.73,16.58 -23.56,84.84 18.77,68.02 80.75,-32.11 165.31,-31.44 243.79,7.33 40.64,20.08 76.38,-40.74 35.6,-60.92z"/>
     <path class="fil4" d="M13876.54 7527.56c-21.44,-37.26 -66.53,-35 -66.53,-35 -36.72,0 -66.53,29.78 -66.53,66.54 0,36.76 29.81,66.53 66.53,66.53 8.11,0 15.8,-1.66 22.97,-4.3l0.03 0.17c0.46,-0.14 0.74,-0.42 1.17,-0.56 2.15,-0.85 4.16,-1.91 6.2,-2.96 58.18,-25.23 64.39,-89.82 64.39,-89.82 -11.61,9.77 -28.23,-0.6 -28.23,-0.6z"/>
     <path class="fil4" d="M13033.32 7401.83c94.54,-46.67 199.6,-53.62 298.16,-14.43 41.73,16.58 23.56,84.84 -18.77,68.02 -80.75,-32.11 -165.31,-31.44 -243.8,7.33 -40.64,20.08 -76.37,-40.74 -35.59,-60.92z"/>
     <path class="fil4" d="M13118.41 7527.56c21.48,-37.26 66.57,-35 66.57,-35 36.72,0 66.53,29.78 66.53,66.54 0,36.76 -29.81,66.53 -66.53,66.53 -8.12,0 -15.81,-1.66 -22.97,-4.3l-0.03 0.17c-0.46,-0.14 -0.74,-0.42 -1.17,-0.56 -2.15,-0.85 -4.16,-1.91 -6.21,-2.96 -58.17,-25.23 -64.38,-89.82 -64.38,-89.82 11.61,9.77 28.19,-0.6 28.19,-0.6z"/>
     <path class="fil7" d="M13280.68 8106.82c23.46,87.6 111.51,152.79 216.8,152.79 105.31,0 193.36,-65.19 216.78,-152.79l-433.59 0z"/>
     <path class="fil4" d="M13420.55 6658.65c47.7,76.24 95.39,152.51 143.13,228.73 30.41,48.62 61.03,97.51 99.41,140.13 32.38,35.91 69.85,66.88 108.23,96.34 141.32,108.51 302.67,200.31 479.73,220.16 -43.56,-151.48 -68.61,-312.13 -162.87,-438.46 -150.89,-202.21 -420.51,-297.77 -667.62,-246.9z"/>
     <path class="fil4" d="M13550.76 6697.07c-33.3,133.45 -128.83,242.74 -233,332.62 -153.03,132.08 -332.27,234.73 -525.73,293.4 -4.34,-128.02 42.05,-252.12 109.54,-361.02 36.44,-58.85 76.27,-117.62 132.22,-158.37 49.78,-36.26 109.36,-56.05 167.85,-75.35 110.03,-36.27 237.37,-61.84 349.13,-31.29z"/>
    </g>
    <g>
     <path class="fil1" d="M10427.34 8118.36c0,552.09 -195.44,1058.31 -521.4,1453.06 -153.81,186.97 -336.89,348.89 -542.21,479.06 -61.73,39.16 -125.58,75.5 -191.2,108.31 -309.73,157.34 -660.03,245.52 -1031.15,245.52 -371.11,0 -721.4,-88.19 -1031.14,-245.52 -65.62,-32.81 -129.47,-69.15 -191.21,-108.31 -205.31,-130.17 -388.39,-292.09 -542.2,-479.06 -325.96,-394.75 -521.4,-900.97 -521.4,-1453.06 0,-1262.55 1023.39,-2285.94 2285.94,-2285.94 1262.56,0 2285.95,1023.39 2285.95,2285.94z"/>
     <path class="fil17" d="M9905.94 9571.42c-153.81,186.97 -336.89,348.89 -542.21,479.06 -61.73,39.16 -125.58,75.5 -191.2,108.31 -309.73,157.34 -660.03,245.52 -1031.15,245.52 -371.11,0 -721.4,-88.19 -1031.14,-245.52 -65.62,-32.81 -129.47,-69.15 -191.21,-108.31 -205.31,-130.17 -388.39,-292.09 -542.2,-479.06 70.2,-182.38 223.29,-323.84 416.26,-377.11l547.86 -151.34 192.26 -53.27 176.04 -48.68 66.66 -373.23 20.11 -112.54 26.46 -149.22 318.9 124.88 318.9 -124.88 26.46 149.22 53.62 300.21 33.16 185.56 176.04 48.68 192.26 53.27 547.86 151.34c192.97,53.27 346.06,194.74 416.26,377.11z"/>
     <path class="fil18" d="M8749.57 8989.7l-5.29 9.17c-39.51,235.65 -256.11,379.94 -576.78,379.94 -10.94,0 -19.76,0 -26.11,-0.36 -6.35,0.36 -15.17,0.36 -26.11,0.36 -321.01,0 -537.26,-144.29 -576.77,-379.94l-5.29 -9.17 176.04 -48.68 113.23 -634.99 318.9 124.88 318.9 -124.88 113.24 634.99 176.04 48.68z"/>
     <path class="fil19" d="M8573.53 8941.02c-19.4,286.8 -432.14,260.69 -432.14,260.69 0,0 -412.74,26.11 -432.13,-260.69l66.66 -373.23 46.57 -261.75 318.9 124.88 318.9 -124.88 80.08 449.43 33.16 185.56z"/>
     <path class="fil4" d="M8964.86 7189.84c11.75,-8.53 18.77,-23.21 18.1,-37.74 -0.71,-14.54 -5.44,-40.26 -17.92,-47.7 11.21,-22.05 5.22,-63.04 -12.88,-79.9 10.48,-21.95 4.94,-59.16 -14.68,-73.56 12.28,-21.76 -10.65,-61.2 -34.89,-67.27 2.19,-24.38 -17.67,-64.52 -40.04,-74.47 15.03,-30.94 -12.24,-82.24 -45.68,-90.21 2.43,-25.96 -19.02,-59.83 -43.89,-67.56 0.11,-25.92 -27.9,-57.53 -53.55,-61.38 -10.93,-31.61 -46.92,-62.3 -80.29,-64.59 -4.52,-20.57 -18.31,-38.88 -36.8,-48.9 -18.48,-10.02 -52.24,-13.93 -71.93,-6.52 -12.56,-27.03 -56.27,-35.32 -83.89,-24.1 -13.76,-26.56 -58.35,-36.72 -81.67,-17.99 -16.79,-23.21 -65.33,-31.96 -88.19,-14.71 -19.58,-15.03 -52.92,-13.27 -75.99,-4.55 -11.11,-21.31 -35.28,-30.66 -59.3,-30.66 -24.02,0 -48.19,9.35 -59.3,30.66 -23.07,-8.72 -56.41,-10.48 -75.99,4.55 -22.86,-17.25 -71.4,-8.5 -88.2,14.71 -23.31,-18.73 -67.9,-8.57 -81.66,17.99 -27.63,-11.22 -71.33,-2.93 -83.93,24.1 -19.68,-7.41 -53.4,-3.5 -71.89,6.52 -18.48,10.02 -32.27,28.33 -36.79,48.9 -33.37,2.29 -69.36,32.98 -80.33,64.59 -25.61,3.85 -53.62,35.46 -53.51,61.38 -24.87,7.73 -46.32,41.6 -43.92,67.56 -33.41,7.97 -60.68,59.27 -45.65,90.21 -22.37,9.95 -42.23,50.09 -40.08,74.47 -24.2,6.07 -47.13,45.51 -34.85,67.27 -19.62,14.4 -25.16,51.61 -14.68,73.56 -18.1,16.86 -24.09,57.85 -12.88,79.9 -12.48,7.44 -17.25,33.16 -17.92,47.7 -0.67,14.53 6.35,29.21 18.1,37.74 -20.85,24.17 -17.5,69.4 2.61,94.16 -12.03,29.67 -6.7,79.66 12.49,105.27 -11.92,20.21 -5.29,60.25 11.43,76.76 -16.26,33.8 -0.53,87.95 32.7,105.38 2.93,0 14.61,11.92 17.53,11.92l602.67 0 144.04 -543.83 144 543.83 602.71 0c2.93,0 14.61,-11.92 17.54,-11.92 33.23,-17.43 48.96,-71.58 32.7,-105.38 16.72,-16.51 23.35,-56.55 11.43,-76.76 19.19,-25.61 24.52,-75.6 12.49,-105.27 20.11,-24.76 23.42,-69.99 2.61,-94.16z"/>
     <path class="fil19" d="M8966.16 7779.71c-32.1,47.27 -79.72,82.9 -135.46,95.6 -0.71,3.88 -1.06,7.76 -1.77,11.29 -103.01,676.6 -687.54,676.6 -687.54,676.6 0,0 -584.53,0 -687.53,-676.6 -0.71,-3.53 -1.06,-7.41 -1.77,-11.29 -55.74,-12.7 -103.36,-48.33 -135.47,-95.6 -32.1,-47.27 -45.5,-106.54 -37.04,-163.33 4.24,-27.87 14.82,-56.45 36.34,-75.14 19.4,-16.94 45.86,-23.99 71.61,-22.93 24.7,1.05 48.33,9.17 70.56,19.75 1.06,0.35 2.12,1.06 3.17,1.41 0,0 0,-2.11 0,-6 1.06,-66.32 15.17,-644.86 232.83,-651.91 150.98,-7.76 218.35,37.75 447.3,37.75 228.94,0 296.32,-45.51 447.31,-37.75 217.66,7.06 231.77,585.96 232.83,651.91 0,3.89 0,6 0,6 1.05,-0.35 2.11,-1.06 3.17,-1.41 22.23,-10.58 45.86,-18.7 70.56,-19.75 25.75,-1.06 52.21,5.99 71.61,22.93 21.52,18.69 32.1,47.27 36.34,75.14 8.46,56.79 -4.94,116.06 -37.05,163.33z"/>
     <path class="fil20" d="M8540.37 8755.47c-138.99,61.38 -256.46,61.38 -256.46,61.38 0,0 -300.2,0 -507.99,-249.05l46.57 -261.75 318.9 124.88 318.9 -124.88 80.08 449.43z"/>
     <path class="fil4" d="M8875.99 7275.71c-2.15,-93.56 -27.12,-184.68 -54.39,-274.73 -27.31,-90.07 -82.73,-176.43 -169.16,-224.18 -73.41,-40.57 -162.07,-49.85 -247.39,-48.16 -41.74,0.81 -84.11,4.2 -122.95,18.35 -61.13,22.26 -127.14,9.63 -140.72,69.07 -13.58,-59.44 -79.59,-46.81 -140.72,-69.07 -38.84,-14.15 -81.21,-17.54 -122.95,-18.35 -85.33,-1.69 -173.98,7.59 -247.38,48.16 -86.43,47.76 -141.89,134.12 -169.16,224.18 -27.27,90.06 -52.24,181.18 -54.39,274.73 -1.84,79.9 2.78,160.41 54.32,263.59 22.44,6.52 16.9,-37.93 13.8,-59.59 -3.11,-21.66 -16.13,-42.51 -12.42,-64.06 5.75,-33.38 48.51,-52.71 54.79,-85.97 6.73,-35.85 -32.14,-69.89 -22.83,-105.24 9.56,-36.48 60.68,-45.82 88.51,-73.02 24.73,-24.17 29.99,-61.99 56.27,-84.71 49.95,-43.14 137.26,-5.46 195.99,-37.57 22.51,-12.27 37.82,-33.44 58.81,-47.9 18.56,-12.77 41.42,-19.94 64.45,-20.25 31.86,-0.43 62.27,11.82 93.81,15.84 31.54,4.05 69.39,-3.57 82.97,-30.41 2.86,-5.65 4.73,-11.43 6.14,-17.29 1.41,5.86 3.28,11.64 6.14,17.29 13.58,26.84 51.43,34.46 82.97,30.41 31.54,-4.02 61.95,-16.27 93.8,-15.84 23.04,0.31 45.9,7.48 64.42,20.25 21.03,14.46 36.3,35.63 58.85,47.9 58.73,32.11 146.05,-5.57 196,37.57 26.28,22.72 31.54,60.54 56.27,84.71 27.83,27.2 78.95,36.54 88.51,73.02 9.31,35.35 -29.56,69.39 -22.83,105.24 6.28,33.26 49.04,52.59 54.79,85.97 3.7,21.55 -9.31,42.4 -12.42,64.06 -3.1,21.66 -8.64,66.11 13.8,59.59 51.54,-103.19 56.16,-183.7 54.32,-263.59z"/>
     <path class="fil4" d="M8828.94 7875.31l0 11.29c-103.01,676.6 -687.54,676.6 -687.54,676.6 0,0 -584.53,0 -687.53,-676.6l0 -11.29 4.23 -337.24 0 -7.05c1.06,0.7 2.12,1.41 3.17,2.46 37.75,27.17 63.15,78.32 56.1,123.83 28.57,17.99 42.68,67.03 29.28,97.72 20.81,18.34 33.86,44.8 35.63,71.96 1.76,27.51 -2.47,65.61 -20.82,86.43 21.52,10.93 38.46,30.69 46.22,53.97 7.76,22.93 7.41,58.56 -2.83,80.79 36.34,25.4 47.28,79.37 35.28,122.06 38.1,12.7 71.61,50.09 78.31,89.96 30.34,-4.59 66.67,8.11 85.02,32.1 26.81,-32.1 79.02,-35.98 117.12,-18.7 32.1,-22.22 85.02,-15.17 114.65,10.59 28.58,-25.4 67.74,-23.99 106.19,-23.99 38.45,0 77.61,-1.41 106.19,23.99 29.63,-25.76 82.55,-32.81 114.65,-10.59 38.1,-17.28 90.31,-13.4 117.12,18.7 18.35,-23.99 54.68,-36.69 85.02,-32.1 6.7,-39.87 40.22,-77.26 78.32,-89.96 -12,-42.69 -1.06,-96.66 35.27,-122.06 -10.23,-22.23 -10.58,-57.86 -2.82,-80.79 7.76,-23.28 24.7,-43.04 46.22,-53.97 -18.35,-20.82 -22.58,-58.92 -20.82,-86.43 1.77,-27.16 14.82,-53.62 35.63,-71.96 -13.4,-30.69 0.71,-79.73 29.28,-97.72 -7.05,-45.51 18.35,-96.66 56.1,-123.83 1.05,-1.05 2.11,-1.76 3.17,-2.46l0 7.05 4.23 337.24z"/>
     <path class="fil4" d="M7110.26 10158.79c-65.62,-32.81 -129.47,-69.15 -191.21,-108.31l86.44 -470.94 104.77 579.25z"/>
     <path class="fil4" d="M9363.73 10050.48c-61.73,39.16 -125.58,75.5 -191.2,108.31l104.77 -579.25 86.43 470.94z"/>
     <path class="fil20" d="M8108.26 7445.89l0 403.59 68.41 0c117.23,0 -46.64,-357.2 -68.41,-403.59z"/>
     <path class="fil4" d="M8605.56 7288.66c-94.54,-46.71 -199.6,-53.66 -298.15,-14.47 -41.74,16.62 -23.57,84.88 18.76,68.05 80.76,-32.1 165.32,-31.43 243.8,7.34 40.64,20.07 76.38,-40.78 35.59,-60.92z"/>
     <path class="fil4" d="M8520.44 7445.89c0,36.76 -29.78,66.57 -66.53,66.57 -36.73,0 -66.54,-29.81 -66.54,-66.57 0,-36.72 29.81,-66.53 66.54,-66.53 36.75,0 66.53,29.81 66.53,66.53z"/>
     <path class="fil4" d="M7677.22 7288.66c94.54,-46.71 199.6,-53.66 298.15,-14.47 41.74,16.62 23.57,84.88 -18.77,68.05 -80.75,-32.1 -165.31,-31.43 -243.79,7.34 -40.63,20.07 -76.37,-40.78 -35.59,-60.92z"/>
     <path class="fil4" d="M7762.3 7445.89c0,36.76 29.81,66.57 66.57,66.57 36.73,0 66.54,-29.81 66.54,-66.57 0,-36.72 -29.81,-66.53 -66.54,-66.53 -36.76,0 -66.57,29.81 -66.57,66.53z"/>
     <path class="fil7" d="M7924.58 8042.41c23.46,87.56 111.52,152.75 216.81,152.75 105.3,0 193.36,-65.19 216.77,-152.75l-433.59 0z"/>
    </g>
    <g>
     <path class="fil1" d="M21139.53 2784.49c0,652.98 -273.74,1242.11 -712.94,1659.08 -105.48,99.48 -220.12,189.44 -343.24,268.1 -66.68,42.69 -135.82,82.2 -207.08,117.48 -307.61,154.52 -655.09,241.28 -1022.69,241.28 -367.58,0 -714.7,-86.77 -1022.33,-240.92 -71.26,-35.64 -140.39,-74.81 -207.08,-117.48 -137.22,-87.85 -264.21,-189.8 -379.23,-304.08 -418.03,-413.8 -676.95,-988.48 -676.95,-1623.46 0,-1262.2 1023.38,-2285.59 2285.59,-2285.59 1262.57,0 2285.95,1023.39 2285.95,2285.59z"/>
     <path class="fil8" d="M20012.83 3442.15c-190.26,-152.85 -144.85,-311.59 -44.91,-582.07 99.98,-270.42 23.53,-535 -135.22,-676.11 -158.75,-141.11 -222.56,-318.4 -222.56,-318.4l-786.18 35.52 -786.18 -35.52c0,0 -63.82,177.3 -222.56,318.4 -158.75,141.12 -235.18,405.69 -135.23,676.11 99.95,270.47 145.37,429.22 -44.91,582.07 -190.28,152.9 -378.41,535.06 -149.12,881.93l2675.99 0c229.29,-346.87 41.17,-729.03 -149.12,-881.93z"/>
     <path class="fil21" d="M20426.59 4443.57c-105.48,99.48 -220.12,189.44 -343.24,268.1 -66.68,42.69 -135.82,82.2 -207.08,117.48 -307.61,154.52 -655.09,241.28 -1022.69,241.28 -367.58,0 -714.7,-86.77 -1022.33,-240.92 -71.26,-35.64 -140.39,-74.81 -207.08,-117.48 -137.22,-87.85 -264.21,-189.8 -379.23,-304.08 51.16,-74.1 112.19,-140.41 180.62,-197.92 86.43,-73.02 184.87,-131.94 292.1,-173.22l210.6 -81.14c55.04,-21.16 107.6,-47.62 156.65,-78.31 53.25,-33.51 102.64,-72.32 147.46,-115.71 8.1,-7.76 15.87,-15.88 23.63,-23.98 6,-6.01 11.99,-12.36 17.64,-18.7 6.7,-7.42 13.41,-14.81 19.75,-22.59 1.76,-1.76 3.18,-3.53 4.24,-5.29 1.41,-1.06 2.11,-2.11 3.17,-3.53 0.36,0 0.36,-0.34 0.7,-0.7 3.19,-3.53 6.36,-7.4 9.18,-11.65 0.7,-0.34 1.06,-1.04 1.41,-1.76l1023.74 0c6.35,7.76 12.35,15.53 18.7,22.93 6.35,7.42 12.7,14.83 19.4,21.89 -0.35,0.34 0,0.7 0.35,0.7l3.89 3.87c0.7,1.06 1.76,2.12 2.46,3.19 0,0 0,0.34 0.36,0.34 4.23,4.95 8.82,9.54 13.4,14.11 7.06,7.05 14.11,14.11 21.17,21.17 44.8,43.39 94.19,82.2 147.46,115.71 49.04,30.69 101.6,57.15 156.63,78.31l210.61 81.14c107.25,41.28 205.67,100.2 292.09,173.22 79.38,66.33 148.52,145.34 204.26,233.53z"/>
     <path class="fil22" d="M19335.96 3673.47l-1024.03 0c-24.69,31.02 -51.03,60.68 -79.57,88.2 -44.82,43.39 -94.21,82.2 -147.46,115.71 186.97,127.7 447.31,205.67 739.04,205.67 291.74,0 552.09,-77.97 739.05,-205.67 -53.27,-33.51 -102.66,-72.32 -147.46,-115.71 -28.54,-27.52 -54.89,-57.18 -79.59,-88.2z"/>
     <path class="fil2" d="M19415.55 3761.66c-154.52,89.95 -362.29,144.99 -591.6,144.99 -229.29,0 -437.09,-55.04 -591.59,-144.99 129.11,-124.54 220.48,-286.79 258.22,-468.13l20.1 -96.65 62.44 -301.98 501.65 0 82.55 398.63c15.87,74.79 40.21,146.41 73.37,213.43 46.22,95.61 109.01,181.68 184.86,254.7z"/>
     <path class="fil3" d="M19230.7 3506.96c-88.19,24 -150.98,24 -150.98,24 0,0 -365.48,0 -569.03,-334.07l62.44 -301.98 501.65 0 82.55 398.63c15.87,74.79 40.21,146.41 73.37,213.43z"/>
     <path class="fil8" d="M19520.64 1510.4c-81.6,-152.93 -237.58,-237.59 -381.31,-284.36 -204.47,-66.57 -426.29,-66.57 -630.75,0 -143.74,46.77 -299.72,131.44 -381.3,284.36 -147.46,282.39 -122.36,721.62 -122.36,721.62l153.74 163.16 665.29 -84.45 665.28 84.45 153.75 -163.16c0,0 25.11,-439.23 -122.35,-721.62z"/>
     <path class="fil2" d="M19513.27 2464.18c-98.07,687.89 -689.31,687.89 -689.31,687.89 0,0 -591.25,0 -689.31,-687.89 -55.73,-12.7 -103.35,-48.33 -135.46,-95.61 -32.11,-47.27 -45.5,-106.54 -37.05,-163.33 4.23,-27.87 14.82,-56.45 36.34,-75.14 19.41,-16.94 45.87,-23.99 71.62,-22.94 25.74,1.06 50.44,9.88 73.73,21.17 0,0 39.5,-727.76 531.28,-691.42 299.49,40.57 323.83,206.37 368.28,323.84 44.45,117.12 161.92,355.94 319.61,485.41 157.69,129.47 150.28,218.01 150.28,218.01z"/>
     <path class="fil22" d="M17831.26 4829.51c-71.26,-35.64 -140.39,-74.81 -207.08,-117.48l71.98 -388.05 21.87 -117.47 21.51 117.47 91.72 505.53z"/>
     <path class="fil22" d="M20083.35 4711.67c-66.68,42.69 -135.82,82.2 -207.08,117.48l91.72 -505.17 21.52 -117.47 21.87 117.47 71.97 387.69z"/>
     <path class="fil3" d="M18790.82 2252.1l0 403.6 68.41 0c117.24,0 -46.64,-357.21 -68.41,-403.6z"/>
     <path class="fil8" d="M19288.13 2094.86c-94.55,-46.71 -199.61,-53.66 -298.16,-14.46 -41.74,16.61 -23.57,84.84 18.77,68.01 80.75,-32.1 165.31,-31.43 243.79,7.38 40.64,20.07 76.38,-40.78 35.6,-60.93z"/>
     <path class="fil4" d="M19203.01 2220.56c-21.45,-37.26 -66.53,-35 -66.53,-35 -36.73,0 -66.54,29.78 -66.54,66.54 0,36.76 29.81,66.53 66.54,66.53 8.11,0 15.8,-1.66 22.96,-4.3l0.04 0.17c0.46,-0.14 0.74,-0.39 1.16,-0.56 2.15,-0.81 4.17,-1.91 6.21,-2.93 58.17,-25.26 64.38,-89.85 64.38,-89.85 -11.6,9.77 -28.22,-0.6 -28.22,-0.6z"/>
     <path class="fil8" d="M18359.78 2094.86c94.54,-46.71 199.63,-53.66 298.16,-14.46 41.74,16.61 23.56,84.84 -18.76,68.01 -80.74,-32.1 -165.3,-31.43 -243.79,7.38 -40.64,20.07 -76.4,-40.78 -35.61,-60.93z"/>
     <path class="fil4" d="M18444.88 2220.56c21.48,-37.26 66.54,-35 66.54,-35 36.74,0 66.54,29.78 66.54,66.54 0,36.76 -29.8,66.53 -66.54,66.53 -8.11,0 -15.78,-1.66 -22.97,-4.3l-0.02 0.17c-0.44,-0.14 -0.74,-0.39 -1.18,-0.56 -2.15,-0.81 -4.14,-1.91 -6.18,-2.93 -58.19,-25.26 -64.37,-89.85 -64.37,-89.85 11.6,9.77 28.18,-0.6 28.18,-0.6z"/>
     <path class="fil7" d="M18607.16 2803.33c23.45,87.56 111.49,152.76 216.79,152.76 105.31,0 193.36,-65.2 216.77,-152.76l-433.57 0z"/>
    </g>
    <g>
     <path class="fil1" d="M21139.53 8118.01c0,541.16 -188.03,1038.57 -503.05,1430.14 -155.58,194.73 -342.89,362.99 -553.5,497.41 -66.67,42.67 -135.82,81.84 -207.08,117.48 -307.61,154.16 -654.74,240.92 -1022.33,240.92 -367.58,0 -714.7,-86.77 -1022.32,-240.92 -71.26,-35.64 -140.41,-74.81 -207.08,-117.48 -210.61,-134.42 -397.92,-302.68 -553.5,-497.41 -315.02,-391.57 -503.05,-888.98 -503.05,-1430.14 0,-1262.2 1023.39,-2285.59 2285.94,-2285.59 1262.56,0 2285.95,1023.39 2285.95,2285.59z"/>
     <path class="fil23" d="M20636.48 9548.15c-155.58,194.73 -342.89,362.99 -553.5,497.41 -66.67,42.67 -135.82,81.84 -207.08,117.48 -307.61,154.16 -654.74,240.92 -1022.33,240.92 -367.58,0 -714.7,-86.77 -1022.32,-240.92 -71.26,-35.64 -140.41,-74.81 -207.08,-117.48 -210.61,-134.42 -397.92,-302.68 -553.5,-497.41 58.91,-208.14 222.59,-372.87 434.61,-431.44l345.01 -95.25 0.35 0 202.5 -56.08 368.29 -101.97 56.08 -314.66 25.75 -143.94 4.59 -27.16 26.81 -149.23 318.9 124.9 318.9 -124.9 26.81 149.23 30.34 171.1 27.16 152.4 28.93 162.27 368.29 101.97 202.5 56.08 0.35 0 345.01 95.25c212.02,58.57 375.69,223.3 434.61,431.44z"/>
     <path class="fil24" d="M19306.18 10245.96c-0.03,0 -0.07,0 -0.1,0 -9.74,-0.07 -17.61,-8.01 -17.54,-17.75 1.17,-218 -118.39,-432.06 -304.68,-545.38 -8.33,-5.08 -10.94,-15.91 -5.89,-24.24 5.08,-8.36 15.98,-10.97 24.23,-5.88 196.61,119.58 322.86,345.56 321.62,575.72 -0.07,9.7 -7.94,17.53 -17.64,17.53z"/>
     <path class="fil24" d="M19416.6 10228.32c0,60.96 -49.42,110.38 -110.42,110.38 -60.96,0 -110.38,-49.42 -110.38,-110.38 0,-61 49.42,-110.42 110.38,-110.42 61,0 110.42,49.42 110.42,110.42z"/>
     <path class="fil24" d="M18400.95 10245.96c-9.7,0 -17.57,-7.83 -17.64,-17.53 -1.23,-230.15 125.02,-456.14 321.64,-575.72 8.33,-5.09 19.2,-2.44 24.24,5.88 5.08,8.33 2.4,19.16 -5.89,24.24 -186.3,113.32 -305.87,327.37 -304.71,545.38 0.07,9.74 -7.8,17.68 -17.53,17.75 -0.04,0 -0.07,0 -0.11,0z"/>
     <path class="fil24" d="M18290.58 10228.32c0,60.96 49.42,110.38 110.38,110.38 60.99,0 110.41,-49.42 110.41,-110.38 0,-61 -49.42,-110.42 -110.41,-110.42 -60.96,0 -110.38,49.42 -110.38,110.42z"/>
     <path class="fil24" d="M19862.12 8909.91c-69.4,-615.77 -1008.54,-275.75 -1008.54,-275.75 0,0 -939.14,-340.01 -1008.53,275.75 -56.37,500.12 1008.53,919.28 1008.53,919.28 0,0 1064.87,-419.16 1008.54,-919.28z"/>
     <path class="fil2" d="M19285.72 8863.42c0,235.29 -864.27,235.29 -864.27,0l81.83 -458.6 31.4 -176.39 318.9 124.9 318.9 -124.9 84.31 472.72 28.93 162.27z"/>
     <path class="fil3" d="M19256.8 8701.15c-106.18,34.57 -186.26,34.57 -186.26,34.57 0,0 -363,0 -567.26,-330.9l31.4 -176.39 318.9 124.9 318.9 -124.9 84.31 472.72z"/>
     <path class="fil4" d="M19550.27 6843.92c-81.6,-152.93 -237.59,-237.59 -381.31,-284.36 -204.47,-66.57 -426.28,-66.57 -630.75,0 -143.72,46.77 -299.7,131.44 -381.3,284.36 -147.46,282.39 -122.34,721.62 -122.34,721.62l153.74 163.16 665.27 -84.45 665.28 84.45 153.74 -163.16c0,0 25.12,-439.23 -122.34,-721.62z"/>
     <path class="fil4" d="M19312.96 6906.82c0,0 266.69,-54.89 235.29,-145.1 -31.36,-90.2 -98.74,-46.7 -98.74,-46.7 0,0 165.41,-94.48 63.46,-168.99 -58.84,-36.4 -137.26,0 -137.26,0 0,0 117.65,-133.35 19.61,-184.32 -98.07,-51.01 -168.66,15.66 -168.66,15.66 0,0 15.7,-141.18 -86.26,-137.26 -101.98,3.91 -160.79,152.96 -160.79,152.96 0,0 -23.78,-117.65 -84.46,-113.74 -60.68,3.92 -123.43,121.57 -123.43,121.57 0,0 3.95,-168.8 -94.13,-160.86 -98.03,7.93 -137.26,196.17 -137.26,196.17 0,0 -49.6,-133.35 -118.91,-113.73 -69.32,19.61 -18.35,187.15 -18.35,187.15 0,0 -105.87,-93.03 -152.93,-34.19 -47.06,58.81 47.06,129.4 47.06,129.4 0,0 -101.98,-31.36 -117.65,43.15 -15.7,74.5 138.61,200.02 241.86,231.37l891.51 27.45z"/>
     <path class="fil2" d="M19715.33 7538.95c-4.31,-28.15 -14.72,-56.72 -36.2,-75.42 -19.4,-16.83 -46.04,-23.81 -71.68,-22.68 -25.69,1.09 -50.49,9.66 -73.59,20.84 0,0 -2.3,-650.32 -232.83,-657.91 -151.16,-7.55 -218.43,37.82 -447.45,37.82 -229.05,0 -296.29,-45.37 -447.44,-37.82 -230.53,7.59 -232.83,657.91 -232.83,657.91 -23.1,-11.18 -47.94,-19.75 -73.59,-20.84 -25.64,-1.13 -52.28,5.85 -71.68,22.68 -21.49,18.7 -31.89,47.27 -36.2,75.42 -8.6,56.48 4.94,116.07 37.08,163.3 32.17,47.24 79.62,82.77 135.33,95.5 98.28,687.86 689.33,687.86 689.33,687.86 0,0 591.07,0 689.34,-687.86 55.71,-12.73 103.15,-48.26 135.33,-95.5 32.14,-47.23 45.65,-106.82 37.08,-163.3z"/>
     <path class="fil25" d="M17831.27 10163.04c-71.26,-35.64 -140.41,-74.81 -207.08,-117.48l93.49 -505.52 113.59 623z"/>
     <path class="fil25" d="M20082.99 10045.56c-66.67,42.67 -135.82,81.84 -207.08,117.48l113.59 -623 93.49 505.52z"/>
     <path class="fil3" d="M18820.46 7452.8l0 403.57 68.41 0c117.23,0 -46.64,-357.21 -68.41,-403.57z"/>
     <path class="fil4" d="M19317.75 7295.54c-94.54,-46.68 -199.6,-53.63 -298.15,-14.43 -41.74,16.58 -23.57,84.84 18.76,68.01 80.76,-32.1 165.32,-31.43 243.8,7.34 40.64,20.07 76.38,-40.74 35.59,-60.92z"/>
     <path class="fil4" d="M19232.64 7452.8c0,36.73 -29.78,66.54 -66.53,66.54 -36.73,0 -66.54,-29.81 -66.54,-66.54 0,-36.75 29.81,-66.53 66.54,-66.53 36.75,0 66.53,29.78 66.53,66.53z"/>
     <path class="fil4" d="M18389.42 7295.54c94.54,-46.68 199.6,-53.63 298.15,-14.43 41.74,16.58 23.57,84.84 -18.77,68.01 -80.75,-32.1 -165.31,-31.43 -243.79,7.34 -40.63,20.07 -76.37,-40.74 -35.59,-60.92z"/>
     <path class="fil4" d="M18474.49 7452.8c0,36.73 29.81,66.54 66.57,66.54 36.73,0 66.54,-29.81 66.54,-66.54 0,-36.75 -29.81,-66.53 -66.54,-66.53 -36.76,0 -66.57,29.78 -66.57,66.53z"/>
     <path class="fil7" d="M18636.77 8021.25c23.46,87.6 111.52,152.75 216.81,152.75 105.3,0 193.36,-65.15 216.77,-152.75l-433.59 0z"/>
    </g>
   </g>
  </g>
 </g>
</svg>
